HIERARCHY
ROOT Hips
{
	OFFSET 0.000000 0.000000 0.000000
	CHANNELS 6 Xposition Yposition Zposition Zrotation Yrotation Xrotation 
	JOINT LHipJoint
	{
		OFFSET 0.000000 0.000000 0.000000
		CHANNELS 3 Zrotation Yrotation Xrotation
		JOINT LeftUpLeg
		{
			OFFSET 1.363060 -1.794630 0.839290
			CHANNELS 3 Zrotation Yrotation Xrotation
			JOINT LeftLeg
			{
				OFFSET 2.448110 -6.726130 0.000000
				CHANNELS 3 Zrotation Yrotation Xrotation
				JOINT LeftFoot
				{
					OFFSET 2.562200 -7.039590 0.000000
					CHANNELS 3 Zrotation Yrotation Xrotation
					JOINT LeftToeBase
					{
						OFFSET 0.157640 -0.433110 2.322550
						CHANNELS 3 Zrotation Yrotation Xrotation
						End Site
						{
							OFFSET 0.000000 0.000000 0.000000
						}
					}
				}
			}
		}
	}
	JOINT RHipJoint
	{
		OFFSET 0.000000 0.000000 0.000000
		CHANNELS 3 Zrotation Yrotation Xrotation
		JOINT RightUpLeg
		{
			OFFSET -1.305520 -1.794630 0.839290
			CHANNELS 3 Zrotation Yrotation Xrotation
			JOINT RightLeg
			{
				OFFSET -2.542530 -6.985550 0.000000
				CHANNELS 3 Zrotation Yrotation Xrotation
				JOINT RightFoot
				{
					OFFSET -2.568260 -7.056230 0.000000
					CHANNELS 3 Zrotation Yrotation Xrotation
					JOINT RightToeBase
					{
						OFFSET -0.164730 -0.452590 2.363150
						CHANNELS 3 Zrotation Yrotation Xrotation
						End Site
						{
							OFFSET 0.000000 0.000000 0.000000
						}
					}
				}
			}
		}
	}
}
MOTION
Frames: 31
Frame Time: 0.008333
-0.181357 16.862378 0.736652 45.252657 85.603954 69.221053 -11.846200 1.592226 -2.994567 -3.202236 4.566280 -18.437151 -0.840049 2.494629 41.708419 0.270782 -3.156011 7.216362 -0.818400 -0.000000 -66.839800 7.813112 0.753315 0.231418 11.657898 3.035509 -46.568271 2.326031 -0.531955 18.629384 -2.606496 -10.866051 -2.642850 -2.341300 0.000001 -5.580800
-0.076708 16.881105 0.803662 47.948115 85.580434 71.900370 -11.832937 1.515923 -2.999439 -3.098973 4.053240 -19.213732 -0.660943 2.599759 43.533860 0.352131 -2.904467 8.388400 -0.865300 -0.000000 -63.648300 7.823084 0.777158 0.062045 11.753037 2.837396 -46.108629 2.320526 -0.553886 19.016570 -2.663107 -10.865382 -3.597426 -2.120400 0.000000 -5.044900
0.027142 16.899554 0.872392 50.958957 85.508809 74.879391 -11.795948 1.443834 -2.999025 -3.073005 3.502076 -19.953818 -0.494180 2.690718 45.275584 0.438413 -2.526952 9.395412 -0.860700 0.000000 -60.189000 7.861325 0.813111 -0.102796 11.774154 2.597100 -45.611377 2.306892 -0.570423 19.298318 -2.706775 -10.855559 -4.386654 -1.931400 0.000000 -4.515700
0.130810 16.917583 0.941884 53.849102 85.391675 77.727425 -11.738945 1.378287 -2.996825 -3.106343 2.947963 -20.657586 -0.342172 2.770158 46.918073 0.527972 -2.024658 10.225742 -0.799400 0.000000 -56.700501 7.923731 0.860052 -0.256740 11.730290 2.352154 -45.098663 2.284215 -0.584621 19.520567 -2.740012 -10.840395 -5.039721 -1.770300 -0.000000 -3.933500
0.235180 16.935228 1.010904 56.280037 85.242281 80.120587 -11.671890 1.317823 -2.991539 -3.171651 2.417926 -21.341793 -0.205259 2.839916 48.452425 0.620205 -1.399907 10.873433 -0.680000 -0.000000 -53.439000 7.998074 0.910951 -0.387520 11.639807 2.151654 -44.592428 2.252991 -0.595217 19.704788 -2.769446 -10.839360 -5.587464 -1.634600 0.000000 -3.279500
0.340345 16.952577 1.078792 58.064001 85.065503 81.872698 -11.597864 1.262206 -2.987825 -3.260629 1.934547 -22.003088 -0.083535 2.901984 49.871281 0.714967 -0.658231 11.345758 -0.504800 -0.000000 -50.528101 8.079508 0.964481 -0.493711 11.509226 2.018695 -44.101662 2.213088 -0.603945 19.884656 -2.798749 -10.854111 -6.078555 -1.513800 0.000000 -2.544500
0.446700 16.969772 1.144638 59.111577 84.878840 82.903637 -11.525723 1.207210 -2.984857 -3.348054 1.513902 -22.656191 0.024725 2.957249 51.175400 0.812577 0.186760 11.656531 -0.281000 0.000000 -48.115100 8.155953 1.012575 -0.567869 11.361160 1.985831 -43.630197 2.166611 -0.607777 20.058485 -2.834531 -10.903100 -6.545452 -1.403400 0.000000 -1.751600
0.554084 16.986946 1.208158 59.426476 84.688453 83.217822 -11.457199 1.150963 -2.985059 -3.426587 1.163861 -23.301761 0.120553 3.006592 52.365196 0.913201 1.120535 11.821068 -0.017200 0.000000 -46.210000 8.223651 1.053140 -0.611203 11.206618 2.059214 -43.173488 2.115377 -0.606027 20.229181 -2.879169 -10.986690 -7.021383 -1.294899 -0.000000 -0.926000
0.662441 17.004253 1.269110 59.049219 84.501515 82.857458 -11.395156 1.091122 -2.988193 -3.484548 0.887351 -23.945450 0.205312 3.050482 53.444204 1.016729 2.121826 11.858151 0.275000 -0.000001 -44.793000 8.277841 1.082449 -0.623927 11.062339 2.241347 -42.723137 2.062220 -0.596376 20.382290 -2.934558 -11.107616 -7.523250 -1.184200 0.000000 -0.101500
0.771398 17.021662 1.327696 58.051484 84.315765 81.891193 -11.337376 1.027523 -2.996289 -3.524236 0.681227 -24.584118 0.279509 3.089609 54.415174 1.122467 3.168938 11.783184 0.584300 -0.000000 -43.743600 8.320250 1.101610 -0.612674 10.935104 2.514095 -42.267724 2.009814 -0.578613 20.507962 -2.998347 -11.252637 -8.061065 178.934200 -0.000000 -0.705000
0.880729 17.039236 1.384186 56.526418 84.130749 80.410987 -11.284303 0.959380 -3.007161 -3.540920 0.537467 -25.221696 0.344184 3.123956 55.281134 1.229525 4.235682 11.619187 0.898300 -0.000001 -42.999200 8.350177 1.109044 -0.580428 10.836362 2.862126 -41.795287 1.960968 -0.550753 20.580326 -3.068561 -11.416002 -8.623173 179.058900 0.000000 -1.459800
0.990123 17.056851 1.439104 54.579537 83.938985 78.517622 -11.233301 0.888010 -3.020020 -3.540886 0.445001 -25.854063 0.399752 3.153606 56.044188 1.336370 5.297255 11.383833 1.206100 0.000000 -42.432400 8.371381 1.106487 -0.533832 10.768152 3.257520 -41.295669 1.917909 -0.513086 20.584633 -3.140034 -11.579825 -9.194090 179.189000 0.000000 -2.151200
1.099318 17.074394 1.493019 52.328139 83.732917 76.325584 -11.181616 0.814620 -3.033418 -3.530765 0.390481 -26.479519 0.446614 3.178326 56.705855 1.441165 6.329669 11.094274 1.498400 0.000000 -41.936700 8.388041 1.095677 -0.478862 10.730681 3.672693 -40.763113 1.882423 -0.466333 20.507989 -3.206989 -11.726011 -9.750883 179.320400 -0.000001 -2.772500
1.208093 17.091716 1.546487 49.891647 83.504530 73.949930 -11.127046 0.741038 -3.045377 -3.518487 0.360487 -27.093743 0.485140 3.197706 57.266998 1.541894 7.311500 10.764833 1.767400 0.000000 -41.418399 8.404375 1.078431 -0.420640 10.720308 4.081242 -40.195047 1.855560 -0.411931 20.344430 -3.263483 -11.836734 -10.269213 179.447800 -0.000000 -3.326100
1.316290 17.108642 1.600010 47.382650 83.247508 71.500358 -11.067490 0.668872 -3.054085 -3.512191 0.342246 -27.693476 0.515645 3.211170 57.727957 1.636621 8.225801 10.405862 2.007800 -0.000000 -40.817400 8.424417 1.056466 -0.363303 10.731588 4.461489 -39.593795 1.837769 -0.351965 20.096056 -3.304039 -11.895494 -10.728090 179.565800 0.000000 -3.823300
1.423826 17.125094 1.653932 44.893794 82.957445 69.066575 -11.001724 0.599596 -3.057950 -3.518165 0.324926 -28.274269 0.538432 3.218212 58.089103 1.723624 9.059788 10.023999 2.215699 0.000000 -40.103200 8.451145 1.031233 -0.309812 10.757914 4.798047 -38.964560 1.828858 -0.288774 19.771901 -3.324636 -11.890280 -11.113051 179.669900 0.000001 -4.282299
1.530708 17.140950 1.708429 42.490183 82.632884 66.712940 -10.928894 0.534064 -3.055998 -3.540590 0.299970 -28.832789 0.553731 3.218335 58.350247 1.801587 9.805759 9.621791 2.389100 0.000001 -39.284600 8.486452 1.003844 -0.261783 10.793036 5.083897 -38.315531 1.828161 -0.224674 19.386239 -3.323205 -11.814522 -11.418593 179.757400 0.000000 -4.724900
1.636942 17.156207 1.763530 40.206317 82.273165 64.472478 -10.849512 0.472958 -3.047454 -3.580909 0.262092 -29.365357 0.561665 3.211435 58.512033 1.869525 10.459529 9.196885 2.526700 -0.000000 -38.381100 8.530378 0.974990 -0.219414 10.830919 5.320110 -37.654097 1.834467 -0.161651 18.957327 -3.299893 -11.668125 -11.648441 179.828200 0.000000 -5.171100
1.742576 17.170878 1.819067 38.050993 81.879710 62.353867 -10.764339 0.416296 -3.032274 -3.637536 0.207644 -29.868905 0.562349 3.197611 58.575506 1.926885 11.020178 8.744870 2.627700 0.000000 -37.433900 8.581772 0.945198 -0.181960 10.867251 5.515537 -36.987806 1.846265 -0.101228 18.503967 -3.257011 -11.457469 -11.813992 179.884300 -0.000000 -5.635100
1.847702 17.185026 1.874764 36.014317 81.454914 60.347785 -10.674671 0.363696 -3.010701 -3.706844 0.134727 -30.341444 0.555852 3.177207 58.542436 1.973428 11.488767 8.259390 2.692100 0.000001 -36.486400 8.638347 0.914776 -0.147921 10.899016 5.684030 -36.321861 1.861891 -0.044271 18.043253 -3.198610 -11.194361 -11.932411 179.929300 0.000000 -6.122200
1.952400 17.198721 1.930267 34.077708 81.001105 58.436344 -10.582084 0.314495 -2.983153 -3.783366 0.042124 -30.781744 0.542266 3.150797 58.415848 2.009247 11.868038 7.734242 2.720000 0.000000 -35.577500 8.697121 0.883924 -0.115586 10.924849 5.842099 -35.658643 1.879704 0.008909 17.589454 -3.129561 -10.893346 -12.023234 179.967500 0.000000 -6.627600
2.056724 17.212074 1.985191 32.223694 80.520455 56.602567 -10.488177 0.268005 -2.950115 -3.861319 -0.071224 -31.188807 0.521703 3.119064 58.199437 2.034610 12.161072 7.165744 2.712500 0.000000 -34.735400 8.754984 0.852942 -0.083359 10.944287 6.005749 -34.997903 1.898200 0.058622 17.151579 -3.054998 -10.570430 -12.105204 -179.997100 -0.000001 -7.137600
2.160790 17.225122 2.039184 30.435119 80.016828 54.832220 -10.394964 0.223025 -2.910768 -3.932495 -0.208189 -31.567230 0.494527 3.082679 57.899034 2.050057 12.371602 6.553028 2.671400 0.000000 -33.969800 8.808303 0.821449 -0.049174 10.959933 6.189551 -34.338846 1.916381 0.105851 16.732571 -2.979737 -10.241930 -12.191570 -179.961900 -0.000000 -7.629400
2.264556 17.237966 2.092052 28.714349 79.490610 53.124533 -10.301983 0.179409 -2.866759 -3.995992 -0.370974 -31.911021 0.460948 3.041973 57.516897 2.056321 12.505473 5.901701 2.600400 -0.000000 -33.299000 8.856984 0.790874 -0.014604 10.969547 6.397672 -33.673339 1.933336 0.150848 16.333014 -2.906171 -9.915409 -12.293300 -179.924600 0.000000 -8.085500
2.368003 17.250645 2.143624 27.064300 78.944809 51.481788 -10.209773 0.136484 -2.817705 -4.047969 -0.563741 -32.221674 0.421584 2.997277 57.057904 2.054365 12.568900 5.222060 2.504500 0.000000 -32.726000 8.900103 0.761490 0.019431 10.975025 6.631006 -32.994640 1.948844 0.194433 15.947488 -2.835867 -9.597642 -12.411487 -179.885301 -0.000000 -8.482800
2.471222 17.263112 2.193814 25.488471 78.383203 49.910546 -10.120095 0.093756 -2.760902 -4.083177 -0.791685 -32.508870 0.377264 2.949203 56.530942 2.045387 12.569221 4.523642 2.388900 0.000000 -32.194300 8.935816 0.732787 0.053388 10.980642 6.887431 -32.303027 1.963390 0.237838 15.568865 -2.769349 -9.292469 -12.539997 -179.845501 0.000000 -8.797800
2.574208 17.275356 2.242657 24.001835 77.809059 48.423978 -10.031796 0.051099 -2.696024 -4.102386 -1.059508 -32.773015 0.328967 2.897562 55.939793 2.030853 12.516850 3.823602 2.261000 0.000000 -31.698401 8.966196 0.705443 0.084628 10.986000 7.155563 -31.593482 1.977374 0.281117 15.189543 -2.704905 -8.995838 -12.668968 -179.807400 -0.000000 -9.020700
2.676964 17.287314 2.290309 22.615584 77.225725 47.034710 -9.944990 0.008567 -2.620877 -4.105787 -1.371617 -33.022436 0.277786 2.842521 55.291727 2.012427 12.423377 3.135913 2.127200 0.000000 -31.192900 8.992184 0.679342 0.112063 10.992540 7.423420 -30.868731 1.991598 0.324401 14.804613 -2.640337 -8.701892 -12.784987 -179.773400 -0.000000 -9.146600
2.779310 17.299011 2.337016 21.344112 76.635084 45.750642 -9.857307 -0.033418 -2.537529 -4.098871 -1.728518 -33.248916 0.224644 2.783668 54.586370 1.991800 12.302541 2.478163 1.994800 0.000000 -30.697700 9.018057 0.655625 0.130542 10.997199 7.672474 -30.120552 2.006571 0.366595 14.409055 -2.571926 -8.398904 -12.875061 -179.746000 0.000000 -9.180301
2.881408 17.310344 2.382893 20.185598 76.041486 44.576643 -9.769861 -0.074971 -2.442253 -4.080185 -2.132605 -33.469355 0.170678 2.721329 53.832865 1.970844 12.167234 1.856573 1.868100 -0.000000 -30.152800 9.043438 0.633243 0.141728 11.002117 7.894557 -29.364049 2.023229 0.407686 14.004744 -2.497881 -8.081166 -12.927050 -179.727500 0.000000 -9.132299
2.983174 17.321293 2.428115 19.138720 75.446647 43.509715 -9.681526 -0.115902 -2.335803 -4.053180 -2.581434 -33.683758 0.116624 2.655351 53.032518 1.951270 12.030884 1.277803 1.751100 -0.000000 -29.568501 9.070539 0.612330 0.143788 11.005882 8.079129 -28.602514 2.042024 0.446601 13.594707 -2.415897 -7.740107 -12.933669 -179.718800 -0.000000 -9.019700
